<svg width="81" height="81" viewBox="0 0 81 81" fill="none" xmlns="http://www.w3.org/2000/svg">
<path d="M40.26 0L38.3476 0.90585L3.12015 15.7014L0 17.0098V20.13C0 36.8379 6.74355 51.5328 14.7955 62.3023C18.8215 67.6368 23.1495 72.0654 27.3768 75.1855C31.6041 78.3057 35.7307 80.52 40.26 80.52C44.8899 80.52 48.9159 78.3057 53.1432 75.1855C57.3705 72.0654 61.6984 67.6368 65.7244 62.3023C73.7764 51.5328 80.52 36.8379 80.52 20.13V17.0098L77.3998 15.7014L42.1723 0.90585L40.26 0ZM40.26 10.9708V70.455C39.8574 70.455 36.9385 69.7504 33.6171 67.3348C30.2956 64.9192 26.4709 60.9939 22.9482 56.364C16.5066 47.8087 11.4741 35.932 10.6689 23.3508L40.26 11.0715V10.9708Z" fill="#1E429F"/>
</svg>
